<svg width="1128" height="896" viewBox="0 0 1128 896" fill="none" xmlns="http://www.w3.org/2000/svg">
<path d="M474 220C481.732 220 488 226.268 488 234V262H516C523.732 262 530 268.268 530 276V293C530 300.732 523.732 307 516 307H488V335C488 342.732 481.732 349 474 349H457C449.268 349 443 342.732 443 335V307H415C407.268 307 401 300.732 401 293V276C401 268.268 407.268 262 415 262H443V234C443 226.268 449.268 220 457 220H474Z" fill="white"/>
<circle cx="669" cy="241" r="22" fill="white"/>
<circle cx="711" cy="284" r="22" fill="white"/>
<circle cx="626" cy="284" r="22" fill="white"/>
<circle cx="669" cy="326" r="22" fill="white"/>
<path d="M567 0C705.407 0 821.244 96.6273 850.735 226.103C852.258 232.788 847.061 239 840.204 239H785.311C780.252 239 775.874 235.54 774.464 230.682C748.36 140.742 665.358 75 567 75C447.706 75 351 171.706 351 291C351 360.975 384.275 423.177 435.863 462.649C438.721 464.836 440.431 468.222 440.366 471.819L439.36 527.527C439.319 529.836 441.792 531.324 443.812 530.206L498.997 499.659C501.616 498.209 504.71 497.904 507.589 498.726C526.464 504.114 546.395 507 567 507C620.064 507 668.657 487.864 706.259 456.118C708.356 454.348 707.079 451 704.335 451H698.566C689.881 451 684.631 441.401 689.18 434.002C701.688 413.655 708.929 399.739 714.48 383.762C716.071 379.185 720.314 376 725.159 376H830.535C837.924 376 843.207 383.148 840.691 390.096C800.157 502.023 692.919 582 567 582C538.788 582 511.515 577.984 485.719 570.495C482.848 569.662 479.758 569.972 477.143 571.42L399.905 614.174C393.844 617.529 386.423 613.064 386.548 606.137L387.994 526.012C388.056 522.555 386.481 519.28 383.796 517.102C318.032 463.749 276 382.283 276 291C276 130.285 406.285 0 567 0Z" fill="url(#paint0_linear_8_29)"/>
<path d="M80.36 796.19V778.15H138.58V834.32C125.255 847.85 103.115 856.46 83.23 856.46C43.665 856.46 9.84 823.045 9.84 783.48C9.84 743.915 43.665 710.705 83.23 710.705C103.115 710.705 125.255 719.11 138.58 732.845L124.025 746.785C114.39 736.33 97.785 729.77 83.23 729.77C54.94 729.77 31.16 754.37 31.16 783.48C31.16 812.795 54.94 837.395 83.23 837.395C95.12 837.395 108.445 833.09 118.08 825.71V796.19H80.36ZM211.794 745.555C240.289 745.555 256.074 763.595 256.074 789.835V854H236.189V839.445C228.399 850.515 213.844 856.46 200.929 856.46C178.379 856.46 161.774 843.34 161.774 822.635C161.774 801.52 180.839 787.375 204.209 787.375C214.664 787.375 225.939 789.63 236.189 793.115V789.835C236.189 776.51 230.039 762.365 208.924 762.365C198.469 762.365 188.219 766.465 178.994 771.18L171.614 756.215C186.784 748.63 200.109 745.555 211.794 745.555ZM204.824 840.47C217.944 840.47 232.704 833.91 236.189 820.79V806.645C227.579 803.98 217.739 802.545 207.284 802.545C193.139 802.545 181.249 810.54 181.249 822.02C181.249 833.5 191.499 840.47 204.824 840.47ZM403.914 745.555C426.054 745.555 442.044 762.57 442.044 786.555V854H422.159V789.63C422.159 774.05 412.934 763.185 399.609 763.185C384.439 763.185 373.779 773.23 373.779 787.785V854H353.894V789.63C353.894 774.05 344.669 763.185 331.344 763.185C316.174 763.185 305.514 773.23 305.514 787.785V854H285.219V748.015H305.514V762.775C310.844 752.32 321.914 745.555 335.444 745.555C350.819 745.555 363.324 753.755 369.474 766.875C374.394 753.755 387.924 745.555 403.914 745.555ZM519.79 838.42C530.86 838.42 543.775 833.5 550.13 826.94L562.84 840.06C553.41 850.105 534.96 856.46 519.995 856.46C490.475 856.46 465.465 833.295 465.465 800.7C465.465 768.925 489.04 745.555 518.355 745.555C550.745 745.555 569.4 770.155 569.4 808.08H485.965C488.63 825.71 501.545 838.42 519.79 838.42ZM519.175 763.595C502.775 763.595 489.45 774.665 486.17 791.885H549.72C547.465 775.485 537.42 763.595 519.175 763.595ZM612.604 834.73H687.224V854H591.694V713.165H612.604V834.73ZM758.662 856.46C728.322 856.46 702.697 831.04 702.697 800.905C702.697 770.77 728.322 745.555 758.662 745.555C788.797 745.555 814.217 770.77 814.217 800.905C814.217 831.04 788.797 856.46 758.662 856.46ZM758.662 838.83C777.727 838.83 793.922 821.61 793.922 800.905C793.922 780.405 777.727 763.185 758.662 763.185C739.187 763.185 722.992 780.405 722.992 800.905C722.992 821.61 739.187 838.83 758.662 838.83Z" fill="white"/>
<path d="M902.743 797.42V776.51H962.808V833.5C949.278 847.645 927.343 856.46 906.843 856.46C866.458 856.46 832.428 823.045 832.428 783.48C832.428 743.915 866.458 710.705 906.843 710.705C927.343 710.705 949.278 719.315 962.808 733.46L944.563 750.475C935.748 740.225 920.578 734.075 906.843 734.075C880.603 734.075 858.463 756.625 858.463 783.48C858.463 810.54 880.603 833.09 906.843 833.09C917.503 833.09 928.983 829.4 937.798 823.045V797.42H902.743ZM1055.09 797.42V776.51H1115.16V833.5C1101.63 847.645 1079.69 856.46 1059.19 856.46C1018.81 856.46 984.777 823.045 984.777 783.48C984.777 743.915 1018.81 710.705 1059.19 710.705C1079.69 710.705 1101.63 719.315 1115.16 733.46L1096.91 750.475C1088.1 740.225 1072.93 734.075 1059.19 734.075C1032.95 734.075 1010.81 756.625 1010.81 783.48C1010.81 810.54 1032.95 833.09 1059.19 833.09C1069.85 833.09 1081.33 829.4 1090.15 823.045V797.42H1055.09Z" fill="url(#paint1_radial_8_29)"/>
<defs>
<linearGradient id="paint0_linear_8_29" x1="320.165" y1="-8.97512e-06" x2="806.837" y2="615.313" gradientUnits="userSpaceOnUse">
<stop stop-color="#B10E5C"/>
<stop offset="0.283654" stop-color="#E0055D"/>
<stop offset="0.846154" stop-color="#E06B05"/>
</linearGradient>
<radialGradient id="paint1_radial_8_29" cx="0" cy="0" r="1" gradientUnits="userSpaceOnUse" gradientTransform="translate(564 793.5) scale(564 102.5)">
<stop offset="0.649038" stop-color="#E0055D"/>
<stop offset="1" stop-color="#E06B05"/>
</radialGradient>
</defs>
</svg>
